PathFileType	4	(X/Y/Z)	D:\TRACE\v60_Jaco2_6-2-23\JustBodyDRS_Motion1_1-platform.trc
DataRate	CameraRate	NumFrames	NumMarkers	Units	OrigDataRate	OrigDataStartFrame	OrigNumFrames
100.00	100.00	      44	5	mm	100.00	1	      7500
Frame#	Time	Left_Front			Right_Front			Left_Aft			Right_Aft			Post			
		X1	Y1	Z1	X2	Y2	Z2	X3	Y3	Z3	X4	Y4	Z4	X5	Y5	Z5	

1	0.000	-800.61432	8.74645	-638.95166	769.30750	10.07195	-644.36841	-708.76111	7.85490	496.16641	733.24762	7.04174	505.97079	-14.54368	1308.03137	-961.81873	
2	0.010	-800.62109	8.79018	-638.94952	769.31134	10.07502	-644.36816	-708.77240	7.85221	496.13464	733.23157	7.06398	505.97244	-14.55414	1308.03467	-961.79907	
3	0.020	-800.65790	8.72398	-638.94910	769.31024	10.08970	-644.32281	-708.77094	7.86552	496.12863	733.17316	7.05183	505.97171	-14.54986	1308.02991	-961.77545	
4	0.030	-800.64832	8.73579	-638.99207	769.32574	10.07962	-644.33081	-708.69580	7.90745	496.13422	733.15851	7.04540	505.96881	-14.60449	1308.04517	-961.82831	
5	0.040	-800.66608	8.78961	-638.91608	769.25696	10.06330	-644.36987	-708.78870	7.86665	496.14670	733.14630	7.02281	505.95917	-14.59440	1308.02441	-961.80322	
6	0.050	-800.64886	8.76086	-639.00201	769.32837	10.08501	-644.33148	-708.77820	7.87177	496.13638	733.14130	7.02829	505.98282	-14.48359	1307.99097	-961.81378	
7	0.060	-800.66162	8.82839	-638.93671	769.36121	10.06793	-644.34094	-708.77203	7.84953	496.14108	733.16687	7.03857	505.96219	-14.46538	1307.97437	-961.79193	
8	0.070	-800.66205	8.73211	-638.92841	769.29230	10.07477	-644.34900	-708.77374	7.83663	496.13739	733.11145	6.97693	505.98749	-14.53465	1307.96069	-961.74115	
9	0.080	-800.73517	8.77325	-638.85944	769.28973	10.05329	-644.37158	-708.73987	7.82464	496.16263	733.13977	7.01231	506.00925	-14.52929	1307.94226	-961.76202	
10	0.090	-800.70007	8.74307	-638.94818	769.32672	10.05408	-644.32117	-708.75031	7.81354	496.12796	733.10645	7.00679	506.00830	-14.49015	1307.90918	-961.76007	
11	0.100	-800.66083	8.71021	-638.91315	769.33490	10.01312	-644.33301	-708.74194	7.82063	496.16092	733.09247	7.03520	506.01593	-14.55137	1307.97034	-961.74066	
12	0.110	-800.67267	8.74587	-638.93671	769.27887	10.03421	-644.35852	-708.75916	7.79249	496.14587	733.14148	7.00008	505.96860	-14.56318	1307.98633	-961.74817	
13	0.120	-800.64331	8.77580	-638.93481	769.34503	10.02633	-644.35883	-708.76941	7.83615	496.15921	733.05255	7.00735	506.00882	-14.48462	1307.99536	-961.81531	
14	0.130	-800.68323	8.71739	-638.89307	769.28186	10.06238	-644.35913	-708.67993	7.86181	496.11386	733.13422	7.01340	505.96613	-14.46479	1307.95447	-961.80005	
15	0.140	-800.68396	8.73455	-638.89929	769.29266	10.07047	-644.35040	-708.76190	7.80604	496.11829	733.10559	7.01759	505.99011	-14.54072	1307.98157	-961.81445	
16	0.150	-800.64136	8.77720	-638.94696	769.37915	10.01558	-644.30585	-708.65851	7.90064	496.16150	733.18231	7.04693	505.99640	-14.59703	1308.02002	-961.77008	
17	0.160	-800.62445	8.80569	-638.94653	769.29187	10.06807	-644.36945	-708.76093	7.84103	496.17566	733.24622	7.05851	505.96902	-14.51402	1308.02954	-961.79926	
18	0.170	-800.65491	8.80809	-638.93164	769.29810	10.08301	-644.35162	-708.77887	7.86687	496.12878	733.18719	7.04761	505.97333	-14.53007	1308.00439	-961.72455	
19	0.180	-800.66992	8.73007	-638.96265	769.25195	10.08311	-644.36212	-708.76019	7.81949	496.14215	733.11652	7.05089	505.99692	-14.52891	1308.02173	-961.80634	
20	0.190	-800.67017	8.72561	-638.94525	769.31555	10.03271	-644.36859	-708.81500	7.85012	496.14297	733.11298	6.99984	505.97742	-14.62836	1308.01648	-961.78473	
21	0.200	-800.64087	8.80530	-638.99774	769.24078	10.09870	-644.38867	-708.72217	7.93850	496.16125	733.15991	7.03610	505.96884	-14.55849	1308.04163	-961.81238	
22	0.210	-800.63788	8.78610	-638.95374	769.29614	10.07588	-644.35010	-708.78802	7.87170	496.12216	733.19220	7.06722	505.96750	-14.53452	1308.01917	-961.78339	
23	0.220	-800.63947	8.80852	-638.90833	769.24286	10.07347	-644.36304	-708.75110	7.85316	496.14359	733.20673	7.06632	505.98282	-14.52491	1307.98633	-961.76721	
24	0.230	-800.63647	8.71820	-638.93311	769.25763	10.05209	-644.36755	-708.65137	7.87845	496.20914	733.18451	7.05030	505.98529	-14.53590	1307.96423	-961.75323	
25	0.240	-800.68463	8.74168	-638.83173	769.24927	10.03696	-644.39410	-708.76611	7.83841	496.17377	733.16553	7.00885	505.98407	-14.46461	1307.95886	-961.82440	
26	0.250	-800.66913	8.77534	-638.92145	769.24811	10.03602	-644.39801	-708.76056	7.84829	496.12427	733.08307	7.00482	505.99609	-14.51024	1307.95313	-961.79846	
27	0.260	-800.67346	8.75079	-638.91357	769.25562	10.05329	-644.38269	-708.81268	7.88978	496.12054	733.13611	7.04951	506.03467	-14.42439	1307.93298	-961.78503	
28	0.270	-800.67523	8.78083	-638.93103	769.36133	10.03876	-644.34583	-708.64978	7.90571	496.13315	733.16968	7.01157	506.00946	-14.41762	1307.93372	-961.81885	
29	0.280	-800.68335	8.73918	-638.89197	769.34222	10.09301	-644.28149	-708.76581	7.84155	496.17773	733.14117	7.01763	505.97372	-14.42519	1307.92053	-961.77863	
30	0.290	-800.71240	8.78032	-638.82697	769.35492	10.00168	-644.34473	-708.76605	7.81747	496.13617	733.08533	6.99879	505.99789	-14.42101	1307.89844	-961.74963	
31	0.300	-800.68158	8.77338	-638.87042	769.31866	10.06350	-644.35693	-708.73590	7.83376	496.18134	733.21667	7.00761	506.00586	-14.42857	1307.91760	-961.79443	
32	0.310	-800.68530	8.80809	-638.90363	769.33405	10.06817	-644.31744	-708.66083	7.91180	496.18973	733.21198	7.04350	505.97562	-14.50783	1307.97229	-961.79773	
33	0.320	-800.62506	8.78369	-638.85291	769.39044	10.06189	-644.34351	-708.67322	7.91970	496.12546	733.26825	7.06153	505.95087	-14.53788	1308.01013	-961.77954	
34	0.330	-800.61090	8.72700	-638.93854	769.33417	10.03241	-644.36157	-708.75256	7.86295	496.13657	733.18402	7.03964	505.99283	-14.54627	1308.04443	-961.80835	
35	0.340	-800.68573	8.73372	-638.90656	769.29797	10.04812	-644.34857	-708.78601	7.86518	496.12921	733.13635	7.03360	506.00317	-14.56585	1308.00439	-961.76996	
36	0.350	-800.67542	8.77980	-638.89087	769.29614	10.06357	-644.37347	-708.80988	7.86720	496.12256	733.12085	7.04205	505.98599	-14.58523	1307.99512	-961.78625	
37	0.360	-800.61841	8.78091	-638.89447	769.30682	10.09771	-644.34912	-708.72485	7.92615	496.09708	733.17407	7.05931	505.98544	-14.60597	1308.02917	-961.76447	
38	0.370	-800.66052	8.86753	-638.91901	769.33337	10.09419	-644.37268	-708.79156	7.89531	496.12347	733.24457	7.06510	505.97147	-14.53974	1308.05017	-961.75153	
39	0.380	-800.63562	8.79762	-638.98468	769.31763	10.10077	-644.37476	-708.75146	7.91678	496.11099	733.25220	7.06055	505.93820	-14.58937	1308.05554	-961.82660	
40	0.390	-800.64825	8.82076	-638.88397	769.21039	10.06749	-644.41748	-708.71027	7.94628	496.13019	733.19727	7.05460	505.94968	-14.56742	1308.02539	-961.78131	
41	0.400	-800.72290	8.81236	-638.87640	769.25494	10.05655	-644.39929	-708.74969	7.81547	496.17566	733.13031	7.02239	505.97635	-14.51979	1307.99207	-961.76508	
42	0.410	-800.64832	8.70028	-638.92944	769.30280	10.04004	-644.35345	-708.70789	7.91879	496.13397	733.07971	7.01346	505.97653	-14.56649	1308.00000	-961.79248	
43	0.420	-800.69067	8.75145	-638.87061	769.25677	10.05048	-644.41315	-708.81927	7.89132	496.14499	733.13605	7.03973	505.98361	-14.50221	1307.97559	-961.77411	
44	0.430	-800.70819	8.79317	-638.88000	769.30536	10.09260	-644.35944	-708.78235	7.86525	496.11929	733.11780	7.00200	505.98453	-14.51043	1307.98047	-961.77136	
